<?xml version="1.0" encoding="UTF-8"?>
<svg version="1.1" xmlns="http://www.w3.org/2000/svg" width="64" height="60">
<path d="M0 0 C16.17 0 32.34 0 49 0 C49.02094549 7.66837567 49.04098358 15.33664831 49.05175018 23.00502777 C49.0570399 26.57571125 49.06411339 30.14637115 49.07543945 33.71704102 C49.08834176 37.81006097 49.09322906 41.9030558 49.09765625 45.99609375 C49.10281754 47.28148544 49.10797882 48.56687714 49.11329651 49.89122009 C49.11337204 51.07236893 49.11344757 52.25351776 49.11352539 53.47045898 C49.115746 54.51636703 49.11796661 55.56227509 49.12025452 56.63987732 C49 59 49 59 48 60 C46.53743823 60.1034125 45.06995736 60.13850321 43.60375977 60.14526367 C42.66931534 60.15164352 41.73487091 60.15802338 40.77210999 60.16459656 C39.75547775 60.16570938 38.73884552 60.1668222 37.69140625 60.16796875 C36.65435043 60.17129715 35.61729462 60.17462555 34.54881287 60.17805481 C32.35049891 60.1831286 30.15217723 60.185463 27.95385742 60.18530273 C24.58043799 60.18748838 21.20734583 60.20563714 17.83398438 60.22460938 C15.70312612 60.2275433 13.57226631 60.2295281 11.44140625 60.23046875 C10.42679825 60.23765427 9.41219025 60.24483978 8.36683655 60.25224304 C7.42923996 60.24916641 6.49164337 60.24608978 5.52563477 60.24291992 C4.69814224 60.24434494 3.87064972 60.24576996 3.01808167 60.24723816 C1 60 1 60 -1 58 C-1.1953125 55.3984375 -1.1953125 55.3984375 -1.125 52.375 C-1.10695313 51.37210938 -1.08890625 50.36921875 -1.0703125 49.3359375 C-1.04710937 48.56507812 -1.02390625 47.79421875 -1 47 C-1.84304688 47.01160156 -2.68609375 47.02320313 -3.5546875 47.03515625 C-4.65039062 47.04417969 -5.74609375 47.05320313 -6.875 47.0625 C-7.96554688 47.07410156 -9.05609375 47.08570313 -10.1796875 47.09765625 C-13 47 -13 47 -15 46 C-15.02465392 41.46102295 -15.04283789 36.92208457 -15.05493164 32.38305664 C-15.0599714 30.83780234 -15.0668032 29.29255284 -15.07543945 27.74731445 C-15.08752076 25.53074971 -15.09323173 23.31424782 -15.09765625 21.09765625 C-15.10281754 20.4028566 -15.10797882 19.70805695 -15.11329651 18.99220276 C-15.11349277 17.3277067 -15.06189129 15.66334501 -15 14 C-14 13 -14 13 -11.05859375 12.90234375 C-9.26615234 12.91974609 -9.26615234 12.91974609 -7.4375 12.9375 C-5.64119141 12.95103516 -5.64119141 12.95103516 -3.80859375 12.96484375 C-2.88175781 12.97644531 -1.95492188 12.98804688 -1 13 C-1.01160156 12.22914062 -1.02320313 11.45828125 -1.03515625 10.6640625 C-1.04869141 9.15972656 -1.04869141 9.15972656 -1.0625 7.625 C-1.07410156 6.62726562 -1.08570313 5.62953125 -1.09765625 4.6015625 C-1 2 -1 2 0 0 Z " fill="#127B42" transform="translate(15,0)"/>
<path d="M0 0 C2.31 0 4.62 0 7 0 C7 4.95 7 9.9 7 15 C14.92 15 22.84 15 31 15 C31.02291394 19.11177927 31.04283951 23.22339658 31.05493164 27.33520508 C31.0599708 28.73495228 31.06680216 30.1346942 31.07543945 31.53442383 C31.0875232 33.54245777 31.09269807 35.55052957 31.09765625 37.55859375 C31.10289307 38.76829834 31.10812988 39.97800293 31.11352539 41.22436523 C31 44 31 44 30 45 C28.53743823 45.1034125 27.06995736 45.13850321 25.60375977 45.14526367 C24.66931534 45.15164352 23.73487091 45.15802338 22.77210999 45.16459656 C21.75547775 45.16570938 20.73884552 45.1668222 19.69140625 45.16796875 C18.65435043 45.17129715 17.61729462 45.17462555 16.54881287 45.17805481 C14.35049891 45.1831286 12.15217723 45.185463 9.95385742 45.18530273 C6.58043799 45.18748838 3.20734583 45.20563714 -0.16601562 45.22460938 C-2.29687388 45.2275433 -4.42773369 45.2295281 -6.55859375 45.23046875 C-7.57320175 45.23765427 -8.58780975 45.24483978 -9.63316345 45.25224304 C-10.57076004 45.24916641 -11.50835663 45.24608978 -12.47436523 45.24291992 C-13.30185776 45.24434494 -14.12935028 45.24576996 -14.98191833 45.24723816 C-17 45 -17 45 -19 43 C-19.27783543 38.98805634 -19.0856495 35.02552638 -19 31 C-12.73 30.67 -6.46 30.34 0 30 C0 20.1 0 10.2 0 0 Z " fill="#175B36" transform="translate(33,15)"/>
<path d="M0 0 C7.92 0 15.84 0 24 0 C24 9.9 24 19.8 24 30 C16.08 30 8.16 30 0 30 C0 20.1 0 10.2 0 0 Z " fill="#20A265" transform="translate(40,0)"/>
<path d="M0 0 C7.92 0 15.84 0 24 0 C24 4.95 24 9.9 24 15 C16.08 15 8.16 15 0 15 C0 10.05 0 5.1 0 0 Z " fill="#107B40" transform="translate(40,30)"/>
<path d="M0 0 C7.92 0 15.84 0 24 0 C24 4.95 24 9.9 24 15 C16.08 15 8.16 15 0 15 C0 10.05 0 5.1 0 0 Z " fill="#32C380" transform="translate(40,0)"/>
<path d="M0 0 C8.25 0 16.5 0 25 0 C25 4.95 25 9.9 25 15 C23.02 15 21.04 15 19 15 C18.67 14.67 18.34 14.34 18 14 C16.58672053 13.84379445 15.1664541 13.74943827 13.74609375 13.68359375 C12.89208984 13.64169922 12.03808594 13.59980469 11.15820312 13.55664062 C10.26037109 13.51732422 9.36253906 13.47800781 8.4375 13.4375 C7.53580078 13.39431641 6.63410156 13.35113281 5.70507812 13.30664062 C3.47021515 13.20021858 1.23523692 13.09820012 -1 13 C-1.02696365 11.20841511 -1.04637917 9.41671527 -1.0625 7.625 C-1.07410156 6.62726562 -1.08570313 5.62953125 -1.09765625 4.6015625 C-1 2 -1 2 0 0 Z " fill="#20A165" transform="translate(15,0)"/>
<path d="M0 0 C0.33 0 0.66 0 1 0 C1.68142607 8.25012275 2.12023551 16.47142333 2.1875 24.75 C2.20039062 25.5239209 2.21328125 26.2978418 2.2265625 27.09521484 C2.23337791 30.93654982 2.18166376 32.72750436 0 36 C-1.97119141 36.34057617 -1.97119141 36.34057617 -4.3515625 36.29296875 C-5.20234375 36.28330078 -6.053125 36.27363281 -6.9296875 36.26367188 C-7.81914062 36.23853516 -8.70859375 36.21339844 -9.625 36.1875 C-10.5221875 36.17396484 -11.419375 36.16042969 -12.34375 36.14648438 C-14.56309789 36.11106925 -16.78125188 36.06168461 -19 36 C-19 34.35 -19 32.7 -19 31 C-12.73 30.67 -6.46 30.34 0 30 C0 20.1 0 10.2 0 0 Z " fill="#13492C" transform="translate(33,15)"/>
<path d="M0 0 C2.3125 -0.3125 2.3125 -0.3125 5 0 C6.8125 2.5 6.8125 2.5 8 5 C8.99 3.35 9.98 1.7 11 0 C12.32 0.33 13.64 0.66 15 1 C14.29875 2.051875 13.5975 3.10375 12.875 4.1875 C11.10173051 7.19488107 11.10173051 7.19488107 11.625 10.625 C12.305625 11.800625 12.305625 11.800625 13 13 C14 15.5 14 15.5 15 18 C13.68 18 12.36 18 11 18 C8.75 15 8.75 15 7 12 C6.01 13.98 5.02 15.96 4 18 C2.68 18 1.36 18 0 18 C2 13 2 13 3.375 10.6875 C4.35740355 6.46316475 2.15334277 3.58593858 0 0 Z " fill="#E6F1EB" transform="translate(9,21)"/>
<path d="M0 0 C1.98 0 3.96 0 6 0 C6 4.95 6 9.9 6 15 C4.02 15 2.04 15 0 15 C0 10.05 0 5.1 0 0 Z " fill="#0F763E" transform="translate(34,15)"/>
<path d="M0 0 C0.33 0 0.66 0 1 0 C1 10.56 1 21.12 1 32 C-2.30994713 33.65497356 -5.99123 33.10084335 -9.625 33.0625 C-10.42679688 33.05798828 -11.22859375 33.05347656 -12.0546875 33.04882812 C-14.03649006 33.03703168 -16.01825433 33.01909605 -18 33 C-18 32.34 -18 31.68 -18 31 C-12.06 30.67 -6.12 30.34 0 30 C0 20.1 0 10.2 0 0 Z " fill="#0C3820" transform="translate(33,15)"/>
</svg>
