<?xml version="1.0" encoding="UTF-8"?>
<svg version="1.1" xmlns="http://www.w3.org/2000/svg" width="64" height="64">
<path d="M0 0 C7.26 0 14.52 0 22 0 C23.33550141 2.67100283 23.12714001 4.71231224 23.12939453 7.703125 C23.13254669 8.89776367 23.13569885 10.09240234 23.13894653 11.32324219 C23.1369223 12.61907227 23.13489807 13.91490234 23.1328125 15.25 C23.13348589 16.58756528 23.13445621 17.92513045 23.13571167 19.26269531 C23.13718698 22.06706913 23.13503943 24.87141112 23.13037109 27.67578125 C23.12467389 31.2739719 23.12795378 34.87208797 23.13394356 38.47027588 C23.13755366 41.23259037 23.13640851 43.99488713 23.13381577 46.75720215 C23.13282237 48.73038786 23.1358642 50.70357426 23.13894653 52.67675781 C23.13421829 54.46871582 23.13421829 54.46871582 23.12939453 56.296875 C23.12859894 57.35229492 23.12780334 58.40771484 23.12698364 59.49511719 C23 62 23 62 22 64 C6.16 64 -9.68 64 -26 64 C-27.39886325 61.2022735 -27.12974597 58.87611108 -27.1328125 55.75 C-27.13410156 54.5021875 -27.13539062 53.254375 -27.13671875 51.96875 C-27.13285156 50.6590625 -27.12898438 49.349375 -27.125 48 C-27.12886719 46.6903125 -27.13273437 45.380625 -27.13671875 44.03125 C-27.13542969 42.7834375 -27.13414063 41.535625 -27.1328125 40.25 C-27.13168457 39.10015625 -27.13055664 37.9503125 -27.12939453 36.765625 C-27 34 -27 34 -26 32 C-22.04 32 -18.08 32 -14 32 C-14.05220703 30.41058594 -14.05220703 30.41058594 -14.10546875 28.7890625 C-14.13360399 27.40105748 -14.16090443 26.01303537 -14.1875 24.625 C-14.21263672 23.92632813 -14.23777344 23.22765625 -14.26367188 22.5078125 C-14.29296875 20.4765625 -14.29296875 20.4765625 -14 17 C-10.68629 14.79086 -9.6553979 14.77518447 -5.8125 14.875 C-4.91144531 14.89304687 -4.01039062 14.91109375 -3.08203125 14.9296875 C-2.39496094 14.95289063 -1.70789063 14.97609375 -1 15 C-1.01160156 14.08476562 -1.02320312 13.16953125 -1.03515625 12.2265625 C-1.04417969 11.03804687 -1.05320312 9.84953125 -1.0625 8.625 C-1.07410156 7.44164062 -1.08570312 6.25828125 -1.09765625 5.0390625 C-1 2 -1 2 0 0 Z " fill="#EDC44B" transform="translate(34,0)"/>
<path d="M0 0 C7.26 0 14.52 0 22 0 C23.33550141 2.67100283 23.12714001 4.71231224 23.12939453 7.703125 C23.13254669 8.89776367 23.13569885 10.09240234 23.13894653 11.32324219 C23.1369223 12.61907227 23.13489807 13.91490234 23.1328125 15.25 C23.13348589 16.58756528 23.13445621 17.92513045 23.13571167 19.26269531 C23.13718698 22.06706913 23.13503943 24.87141112 23.13037109 27.67578125 C23.12467389 31.2739719 23.12795378 34.87208797 23.13394356 38.47027588 C23.13755366 41.23259037 23.13640851 43.99488713 23.13381577 46.75720215 C23.13282237 48.73038786 23.1358642 50.70357426 23.13894653 52.67675781 C23.13579437 53.87139648 23.13264221 55.06603516 23.12939453 56.296875 C23.12859894 57.35229492 23.12780334 58.40771484 23.12698364 59.49511719 C23 62 23 62 22 64 C17.71 64 13.42 64 9 64 C8.67 48.49 8.34 32.98 8 17 C5.36 16.67 2.72 16.34 0 16 C-1 15 -1 15 -1.1328125 12.12890625 C-1.13023438 10.95199219 -1.12765625 9.77507813 -1.125 8.5625 C-1.12757812 7.38816406 -1.13015625 6.21382813 -1.1328125 5.00390625 C-1 2 -1 2 0 0 Z " fill="#D08C0B" transform="translate(34,0)"/>
<path d="M0 0 C3.47914941 -0.02887814 6.95826831 -0.04675687 10.4375 -0.0625 C11.92733398 -0.07506836 11.92733398 -0.07506836 13.44726562 -0.08789062 C14.39150391 -0.09111328 15.33574219 -0.09433594 16.30859375 -0.09765625 C17.62041626 -0.10551147 17.62041626 -0.10551147 18.95874023 -0.11352539 C21 0 21 0 22 1 C22.08790975 3.29151417 22.10694038 5.58572524 22.09765625 7.87890625 C22.0962413 8.5655687 22.09482635 9.25223114 22.09336853 9.95970154 C22.08775479 12.16067801 22.07520007 14.36155409 22.0625 16.5625 C22.05748676 18.05143083 22.05292355 19.54036324 22.04882812 21.02929688 C22.03863021 24.68626805 22.01905779 28.34302117 22 32 C14.74 32 7.48 32 0 32 C-1.39886325 29.2022735 -1.12974597 26.87611108 -1.1328125 23.75 C-1.13410156 22.5021875 -1.13539063 21.254375 -1.13671875 19.96875 C-1.13285156 18.6590625 -1.12898437 17.349375 -1.125 16 C-1.12886719 14.6903125 -1.13273438 13.380625 -1.13671875 12.03125 C-1.13542969 10.7834375 -1.13414062 9.535625 -1.1328125 8.25 C-1.13168457 7.10015625 -1.13055664 5.9503125 -1.12939453 4.765625 C-1 2 -1 2 0 0 Z " fill="#F6D95E" transform="translate(8,32)"/>
</svg>
